<mxfile host="app.diagrams.net" agent="Mozilla/5.0 (Windows NT 10.0; Win64; x64) AppleWebKit/537.36 (KHTML, like Gecko) Chrome/135.0.0.0 Safari/537.36 Edg/135.0.0.0" version="26.2.13">
  <diagram name="Page-1" id="hx5_RX4yC_vf6H-AZVEu">
    <mxGraphModel dx="1309" dy="666" grid="1" gridSize="10" guides="1" tooltips="1" connect="1" arrows="1" fold="1" page="1" pageScale="1" pageWidth="1400" pageHeight="850" math="0" shadow="0">
      <root>
        <mxCell id="0" />
        <mxCell id="1" parent="0" />
        <mxCell id="FZYahU0xXFwmJtMbrbdd-7" value="" style="group" vertex="1" connectable="0" parent="1">
          <mxGeometry x="736" y="85" width="364" height="290" as="geometry" />
        </mxCell>
        <mxCell id="FZYahU0xXFwmJtMbrbdd-8" value="" style="rounded=1;whiteSpace=wrap;html=1;" vertex="1" parent="FZYahU0xXFwmJtMbrbdd-7">
          <mxGeometry x="30" y="40" width="260" height="250" as="geometry" />
        </mxCell>
        <mxCell id="FZYahU0xXFwmJtMbrbdd-9" value="" style="sketch=0;points=[[0,0,0],[0.25,0,0],[0.5,0,0],[0.75,0,0],[1,0,0],[0,1,0],[0.25,1,0],[0.5,1,0],[0.75,1,0],[1,1,0],[0,0.25,0],[0,0.5,0],[0,0.75,0],[1,0.25,0],[1,0.5,0],[1,0.75,0]];outlineConnect=0;fontColor=#232F3E;fillColor=#8C4FFF;strokeColor=#ffffff;dashed=0;verticalLabelPosition=bottom;verticalAlign=top;align=center;html=1;fontSize=12;fontStyle=0;aspect=fixed;shape=mxgraph.aws4.resourceIcon;resIcon=mxgraph.aws4.redshift;" vertex="1" parent="FZYahU0xXFwmJtMbrbdd-7">
          <mxGeometry width="78" height="78" as="geometry" />
        </mxCell>
        <mxCell id="FZYahU0xXFwmJtMbrbdd-12" value="" style="shape=image;verticalLabelPosition=bottom;labelBackgroundColor=default;verticalAlign=top;aspect=fixed;imageAspect=0;image=data:image/png,iVBORw0KGgoAAAANSUhEUgAAAFAAAABQCAYAAACOEfKtAAAACXBIWXMAAAsTAAALEwEAmpwYAAABZUlEQVR4nO3bS0oEMRSF4TPpgY+Be/ExFl2aKxAXoyIoWAYUcTU2gkJTUpBBI85O1U0n+T+oQfXkkkPnZNBpCQAAAMCikqQh8L050+KeA9+BctsqtbKdS22rocXtPPchccchIuuQuO3hEKEDTXQgUDU60EQHAlWjA010IFA1OtBEBwJVowNNdCB2BzcTTNxMALqSWrmeUcrQ4g/lQD/SzB14KelN0o+kceFnmvEq6UKNdOC5pE1AcH+fTZ5dvZe8oCtJq4B5qzxrmvmuBnzlxewFztzf2s7Vd+CYn2il5s7egV0GuMRCtvvoI+C9uQDvtz57CHgvGmCiAz0DHbg7xt4PkWT+p6T7AAfzPyXdB+giQBMBmgjQRIAmAjQRoIkATQRoIkATAZoI0PSZQzxQnMM881sNeMyLuZZ0FDBvmnGTZ04/qVbvLOhGwn83FE7ViBNJT5LWAcGt87f+uPSiAQAAALXoF1UVZ7oHUsb/AAAAAElFTkSuQmCC;" vertex="1" parent="FZYahU0xXFwmJtMbrbdd-7">
          <mxGeometry x="120" y="86" width="80" height="80" as="geometry" />
        </mxCell>
        <mxCell id="FZYahU0xXFwmJtMbrbdd-29" value="JDBC" style="text;html=1;align=center;verticalAlign=middle;whiteSpace=wrap;rounded=0;" vertex="1" parent="FZYahU0xXFwmJtMbrbdd-7">
          <mxGeometry x="304" y="111" width="60" height="30" as="geometry" />
        </mxCell>
        <mxCell id="FZYahU0xXFwmJtMbrbdd-11" value="" style="edgeStyle=orthogonalEdgeStyle;rounded=0;orthogonalLoop=1;jettySize=auto;html=1;" edge="1" parent="1" source="FZYahU0xXFwmJtMbrbdd-1" target="FZYahU0xXFwmJtMbrbdd-3">
          <mxGeometry relative="1" as="geometry" />
        </mxCell>
        <mxCell id="FZYahU0xXFwmJtMbrbdd-1" value="" style="sketch=0;outlineConnect=0;fontColor=#232F3E;gradientColor=none;fillColor=#7AA116;strokeColor=none;dashed=0;verticalLabelPosition=bottom;verticalAlign=top;align=center;html=1;fontSize=12;fontStyle=0;aspect=fixed;pointerEvents=1;shape=mxgraph.aws4.simple_storage_service_directory_bucket;" vertex="1" parent="1">
          <mxGeometry x="40" y="196" width="75" height="78" as="geometry" />
        </mxCell>
        <mxCell id="FZYahU0xXFwmJtMbrbdd-13" style="edgeStyle=orthogonalEdgeStyle;rounded=0;orthogonalLoop=1;jettySize=auto;html=1;entryX=0;entryY=0.75;entryDx=0;entryDy=0;" edge="1" parent="1" source="FZYahU0xXFwmJtMbrbdd-4" target="FZYahU0xXFwmJtMbrbdd-12">
          <mxGeometry relative="1" as="geometry">
            <mxPoint x="730" y="310" as="targetPoint" />
          </mxGeometry>
        </mxCell>
        <mxCell id="FZYahU0xXFwmJtMbrbdd-4" value="" style="rounded=0;whiteSpace=wrap;html=1;" vertex="1" parent="1">
          <mxGeometry x="510" y="180" width="190" height="100" as="geometry" />
        </mxCell>
        <mxCell id="FZYahU0xXFwmJtMbrbdd-5" value="" style="shape=image;verticalLabelPosition=bottom;labelBackgroundColor=default;verticalAlign=top;aspect=fixed;imageAspect=0;image=data:image/png,iVBORw0KGgoAAAANSUhEUgAAAFAAAABQCAYAAACOEfKtAAAACXBIWXMAAAsTAAALEwEAmpwYAAABUklEQVR4nO3aTWrDMBCG4W+d3Kg5YnufdpuIoT1QsjAEXAwyBO/a0Y81fh/wwtkM+ohGmJEEAAAAoIqLpJuku6S58nOXdM01Q1gW8mwQ3Lx5nlFCvOUFvUs6Nah3yrWWmj8K4JEX0yK81TnXnBTAuqWOUrc4AiwUYHr5zRq8z9H+gcthskoN3udoAR6lbnEE6ESATgToRIBOBOhEgE4E6ESATgToRIBOBOhEgE4E6ESATgTotM6CGSr90/VlrLlMy2o7S/rINb8VQM/B+puCuOQh99QguCnXChMeMC7bzHvxR2kz7wUwFKvUA1vczUmRe2BqfFcHULdt1XU7W8HivbZV1+2cKhUvfUh87fUQqaX0IfF5hEPE6IE+9ECgKxv082o3J3Ia9PMq5IkMtGdH74Fe9EBgaEYP9KEHAkMzeqAPPRD7YUe5mVALNxMAAAAADe4Xq3RnyDdFABEAAAAASUVORK5CYII=;" vertex="1" parent="1">
          <mxGeometry x="570" y="190" width="80" height="80" as="geometry" />
        </mxCell>
        <mxCell id="FZYahU0xXFwmJtMbrbdd-6" value="" style="group" vertex="1" connectable="0" parent="1">
          <mxGeometry x="160" y="70" width="330" height="290" as="geometry" />
        </mxCell>
        <mxCell id="FZYahU0xXFwmJtMbrbdd-3" value="" style="rounded=1;whiteSpace=wrap;html=1;" vertex="1" parent="FZYahU0xXFwmJtMbrbdd-6">
          <mxGeometry x="30" y="40" width="260" height="250" as="geometry" />
        </mxCell>
        <mxCell id="FZYahU0xXFwmJtMbrbdd-2" value="" style="sketch=0;points=[[0,0,0],[0.25,0,0],[0.5,0,0],[0.75,0,0],[1,0,0],[0,1,0],[0.25,1,0],[0.5,1,0],[0.75,1,0],[1,1,0],[0,0.25,0],[0,0.5,0],[0,0.75,0],[1,0.25,0],[1,0.5,0],[1,0.75,0]];outlineConnect=0;fontColor=#232F3E;fillColor=#8C4FFF;strokeColor=#ffffff;dashed=0;verticalLabelPosition=bottom;verticalAlign=top;align=center;html=1;fontSize=12;fontStyle=0;aspect=fixed;shape=mxgraph.aws4.resourceIcon;resIcon=mxgraph.aws4.redshift;" vertex="1" parent="FZYahU0xXFwmJtMbrbdd-6">
          <mxGeometry width="78" height="78" as="geometry" />
        </mxCell>
        <mxCell id="FZYahU0xXFwmJtMbrbdd-16" value="&lt;font style=&quot;font-size: 24px;&quot;&gt;Cluster Produsen (ETL)&lt;/font&gt;" style="text;html=1;align=center;verticalAlign=middle;whiteSpace=wrap;rounded=0;" vertex="1" parent="FZYahU0xXFwmJtMbrbdd-6">
          <mxGeometry x="78" y="10" width="260" height="30" as="geometry" />
        </mxCell>
        <mxCell id="FZYahU0xXFwmJtMbrbdd-17" value="Table" style="shape=table;startSize=30;container=1;collapsible=0;childLayout=tableLayout;fixedRows=1;rowLines=0;fontStyle=0;strokeColor=default;fontSize=16;" vertex="1" parent="FZYahU0xXFwmJtMbrbdd-6">
          <mxGeometry x="75" y="100" width="180" height="120" as="geometry" />
        </mxCell>
        <mxCell id="FZYahU0xXFwmJtMbrbdd-18" value="" style="shape=tableRow;horizontal=0;startSize=0;swimlaneHead=0;swimlaneBody=0;top=0;left=0;bottom=0;right=0;collapsible=0;dropTarget=0;fillColor=none;points=[[0,0.5],[1,0.5]];portConstraint=eastwest;strokeColor=inherit;fontSize=16;" vertex="1" parent="FZYahU0xXFwmJtMbrbdd-17">
          <mxGeometry y="30" width="180" height="30" as="geometry" />
        </mxCell>
        <mxCell id="FZYahU0xXFwmJtMbrbdd-19" value="1" style="shape=partialRectangle;html=1;whiteSpace=wrap;connectable=0;fillColor=none;top=0;left=0;bottom=0;right=0;overflow=hidden;pointerEvents=1;strokeColor=inherit;fontSize=16;" vertex="1" parent="FZYahU0xXFwmJtMbrbdd-18">
          <mxGeometry width="40" height="30" as="geometry">
            <mxRectangle width="40" height="30" as="alternateBounds" />
          </mxGeometry>
        </mxCell>
        <mxCell id="FZYahU0xXFwmJtMbrbdd-20" value="Value 1" style="shape=partialRectangle;html=1;whiteSpace=wrap;connectable=0;fillColor=none;top=0;left=0;bottom=0;right=0;align=left;spacingLeft=6;overflow=hidden;strokeColor=inherit;fontSize=16;" vertex="1" parent="FZYahU0xXFwmJtMbrbdd-18">
          <mxGeometry x="40" width="140" height="30" as="geometry">
            <mxRectangle width="140" height="30" as="alternateBounds" />
          </mxGeometry>
        </mxCell>
        <mxCell id="FZYahU0xXFwmJtMbrbdd-21" value="" style="shape=tableRow;horizontal=0;startSize=0;swimlaneHead=0;swimlaneBody=0;top=0;left=0;bottom=0;right=0;collapsible=0;dropTarget=0;fillColor=none;points=[[0,0.5],[1,0.5]];portConstraint=eastwest;strokeColor=inherit;fontSize=16;" vertex="1" parent="FZYahU0xXFwmJtMbrbdd-17">
          <mxGeometry y="60" width="180" height="30" as="geometry" />
        </mxCell>
        <mxCell id="FZYahU0xXFwmJtMbrbdd-22" value="2" style="shape=partialRectangle;html=1;whiteSpace=wrap;connectable=0;fillColor=none;top=0;left=0;bottom=0;right=0;overflow=hidden;strokeColor=inherit;fontSize=16;" vertex="1" parent="FZYahU0xXFwmJtMbrbdd-21">
          <mxGeometry width="40" height="30" as="geometry">
            <mxRectangle width="40" height="30" as="alternateBounds" />
          </mxGeometry>
        </mxCell>
        <mxCell id="FZYahU0xXFwmJtMbrbdd-23" value="Value 2" style="shape=partialRectangle;html=1;whiteSpace=wrap;connectable=0;fillColor=none;top=0;left=0;bottom=0;right=0;align=left;spacingLeft=6;overflow=hidden;strokeColor=inherit;fontSize=16;" vertex="1" parent="FZYahU0xXFwmJtMbrbdd-21">
          <mxGeometry x="40" width="140" height="30" as="geometry">
            <mxRectangle width="140" height="30" as="alternateBounds" />
          </mxGeometry>
        </mxCell>
        <mxCell id="FZYahU0xXFwmJtMbrbdd-24" value="" style="shape=tableRow;horizontal=0;startSize=0;swimlaneHead=0;swimlaneBody=0;top=0;left=0;bottom=0;right=0;collapsible=0;dropTarget=0;fillColor=none;points=[[0,0.5],[1,0.5]];portConstraint=eastwest;strokeColor=inherit;fontSize=16;" vertex="1" parent="FZYahU0xXFwmJtMbrbdd-17">
          <mxGeometry y="90" width="180" height="30" as="geometry" />
        </mxCell>
        <mxCell id="FZYahU0xXFwmJtMbrbdd-25" value="3" style="shape=partialRectangle;html=1;whiteSpace=wrap;connectable=0;fillColor=none;top=0;left=0;bottom=0;right=0;overflow=hidden;strokeColor=inherit;fontSize=16;" vertex="1" parent="FZYahU0xXFwmJtMbrbdd-24">
          <mxGeometry width="40" height="30" as="geometry">
            <mxRectangle width="40" height="30" as="alternateBounds" />
          </mxGeometry>
        </mxCell>
        <mxCell id="FZYahU0xXFwmJtMbrbdd-26" value="Value 3" style="shape=partialRectangle;html=1;whiteSpace=wrap;connectable=0;fillColor=none;top=0;left=0;bottom=0;right=0;align=left;spacingLeft=6;overflow=hidden;strokeColor=inherit;fontSize=16;" vertex="1" parent="FZYahU0xXFwmJtMbrbdd-24">
          <mxGeometry x="40" width="140" height="30" as="geometry">
            <mxRectangle width="140" height="30" as="alternateBounds" />
          </mxGeometry>
        </mxCell>
        <mxCell id="FZYahU0xXFwmJtMbrbdd-10" value="Amazon EKS" style="sketch=0;outlineConnect=0;fontColor=#232F3E;gradientColor=none;strokeColor=#ffffff;fillColor=#232F3E;dashed=0;verticalLabelPosition=middle;verticalAlign=bottom;align=center;html=1;whiteSpace=wrap;fontSize=10;fontStyle=1;spacing=3;shape=mxgraph.aws4.productIcon;prIcon=mxgraph.aws4.eks;" vertex="1" parent="1">
          <mxGeometry x="1109" y="180" width="80" height="100" as="geometry" />
        </mxCell>
        <mxCell id="FZYahU0xXFwmJtMbrbdd-14" style="edgeStyle=orthogonalEdgeStyle;rounded=0;orthogonalLoop=1;jettySize=auto;html=1;" edge="1" parent="1" source="FZYahU0xXFwmJtMbrbdd-12" target="FZYahU0xXFwmJtMbrbdd-10">
          <mxGeometry relative="1" as="geometry">
            <Array as="points">
              <mxPoint x="976" y="230" />
              <mxPoint x="976" y="230" />
            </Array>
          </mxGeometry>
        </mxCell>
        <mxCell id="FZYahU0xXFwmJtMbrbdd-15" value="&lt;font style=&quot;font-size: 24px;&quot;&gt;Data Share ( Metadata)&lt;/font&gt;" style="text;html=1;align=center;verticalAlign=middle;whiteSpace=wrap;rounded=0;" vertex="1" parent="1">
          <mxGeometry x="470" y="150" width="260" height="30" as="geometry" />
        </mxCell>
        <mxCell id="FZYahU0xXFwmJtMbrbdd-27" style="edgeStyle=orthogonalEdgeStyle;rounded=0;orthogonalLoop=1;jettySize=auto;html=1;" edge="1" parent="1" source="FZYahU0xXFwmJtMbrbdd-17" target="FZYahU0xXFwmJtMbrbdd-4">
          <mxGeometry relative="1" as="geometry" />
        </mxCell>
        <mxCell id="FZYahU0xXFwmJtMbrbdd-28" value="&lt;font style=&quot;font-size: 24px;&quot;&gt;Cluster Konsumen (Masking, DDM)&lt;/font&gt;" style="text;html=1;align=center;verticalAlign=middle;whiteSpace=wrap;rounded=0;" vertex="1" parent="1">
          <mxGeometry x="784" y="80" width="260" height="30" as="geometry" />
        </mxCell>
        <mxCell id="FZYahU0xXFwmJtMbrbdd-30" value="Beda AZ" style="text;html=1;align=center;verticalAlign=middle;whiteSpace=wrap;rounded=0;" vertex="1" parent="1">
          <mxGeometry x="1119" y="280" width="60" height="30" as="geometry" />
        </mxCell>
        <mxCell id="FZYahU0xXFwmJtMbrbdd-32" value="Load" style="text;html=1;align=center;verticalAlign=middle;whiteSpace=wrap;rounded=0;" vertex="1" parent="1">
          <mxGeometry x="115" y="210" width="60" height="30" as="geometry" />
        </mxCell>
        <mxCell id="FZYahU0xXFwmJtMbrbdd-34" value="Schema" style="text;html=1;align=center;verticalAlign=middle;whiteSpace=wrap;rounded=0;" vertex="1" parent="1">
          <mxGeometry x="575" y="250" width="60" height="30" as="geometry" />
        </mxCell>
        <mxCell id="FZYahU0xXFwmJtMbrbdd-35" value="" style="shape=image;verticalLabelPosition=bottom;labelBackgroundColor=default;verticalAlign=top;aspect=fixed;imageAspect=0;image=data:image/png,iVBORw0KGgoAAAANSUhEUgAAAlgAAADbCAYAAACx3e+DAAAAAXNSR0IArs4c6QAAAARnQU1BAACxjwv8YQUAAAAJcEhZcwAADsMAAA7DAcdvqGQAAEBuSURBVHhe7d1/WJT3ge/9dzam44nPQo4t42M2EG1A7cqoK07dB8FdFHMk6IaCWRLMpRGLCSZq5JEIJ8adJrGY6Ep+VbLakMgVSNmKwRoCJyLsKnJWBU4N0BqhTQKpPg4b15kW61RyzfPHDDCMMzCYMT+az+u6+IPvj/u+5/75me99z8xNTqfTiYiIiIgEzV94F4iIiIjI56OAJSIiIhJkClgiIiIiQXZDA5bjoh1Hn3epiIiIyJ+3wALWmYPkWw7SNaSwh9odWyk+7RhSOqib4mWpFH/iXS4iIiJfee3l5BTWY/UuK233LPGhkxeWmsmpduUDh70Hm7+o8GcssIAVGQb7nqX0tEfZ+WoKC63cFmnwKBQREZE/C+caKT3UyRXvshNDIpcPkWRYnid7nisfHNtiJu+od5s/f4EFrDGxJN9vp+zdwdRqra6kdeUKUsc56KjcSc5DyZjmZ5BT3IJtSGdco12Fr1Dbv02s9bzgkYptJ0vIuS+R+Ps2U9xs9+gnIiIiX0nt5Vj2t9BavpPlSWYS15fQZAfo4f2jNZzqdtBRuZXth6Dptc3Xjob9mQssYAFx92dBeTWtAHRT8WY7y5fEuiqjUsh7/g2O7H+MkH95gO0nh/aFK3QcqqTjsvvfy51U9Kfik1sx53WT+pMqai3hlC3fSYOe2xIREflqO9dI0Y59tE5Lp3DfW6R1bSXvZ93ua345x84ZiJifwsJwMC3bRN7KWIze0/gzFnDAYmYKGYZy3jkNfFRD2cUsMuYBGIiaHo5rIDCaGTEOLl07hOVX0y/KifhBClOwYwuLZaGxkVY9tyUiIvLVNzeFjJnhGI2RJN8dec0H2wzjw7htDBhCwzCO/2Y9UhR4wCKS5StDKXu3na53y7myPAUTQF8nRUlxZOyo5J39L1Pa7N1veJfsDhxdbZw60cypE1Zm5D5NYph3KxEREflC3TzWuwRHrx7jCdQoAhZE/GAFEXu2sXG/g9Slka7CT+opu7iSF3Zkkbl2E5mzhvYZTLO2wZGtK4MfJ5gxN5aPe0OJW7qY5KWLSV4aS9S4gWoRERH5MkTPJu5MOQc6+wvsVFXWExEePrSd+DSqgMXEJJbPaaRhXBarp7nL7kggY/xOFi5KJjFmFbs7+hsbiZplpWDJKoq7jUTNcvBCihlTTDzJhY0Dn0owpj9NfvcGTLPMmGLMmGK20dA/CREREflyGNPZviOc1xZMdV2fJ8/g8UtPUrbRPcASkHDM88M4sOabd32/KTg/9uzAZnUw1hjifhbLN8fFHq6MCyPURyOHvQfbFQOhI0xDREREvkB9DmwX7TjGhmAM0RU6UEEKWCIiIiLSb3S3CEVERERkRApYIiIiIkGmgCUiIiISZApYIiIiIkGmgCUiIiISZApYIiIiIkGmgCUiIiISZAF/D9aBX1RT+2/HCLC5iIiIfAluuukmEv8+ntR/SPKuGhVd9z+fgAPW2pz/SeF2C4Zvfcu7SkRERL4iHH/6ExvzLOze9WPvqlHRdf/zCfgWodPp1EoWERH5ijN861tBGXXSdf/zCThgiYiIiEhgFLBEREREgkwBS0RERCTIFLBEREREgkwBS0RERL6WHBd7sDm8S4PIYcdqv74ZKGCJiIjIqLWWbqas3bOkh9pC77IbqPcg2bOe4khfN1XPDp2v9XQNVad7BgtOl5DzciO2wZLAHH0K05ZG79KABC1g2U6WkHNfIqaYZLKLWwZfxPl6CnI3k9P/V1iPdWhXERER+Zq5cKKcY+c8S67Qcci77MaxVpZTlZJO6rhwDNZyiuo63TWdlK17hMxn6wbyRtPPt3H4D6GEevS/0YITsPrqef1NSN31Fkcq18HzqWysdA+ptVXygj2WvNxNrr+VsRi9+4uIiMifF0c3VTtWkRiTzPId5XTY3eXt5eSUDg43DYyEWet5YU8jXSdLsOSW0wpYq3eyPMlM4kPbKDvteauuh3d+1kxmegIA8QsWc/ZosytQWZs5NiaWuKZGTvUBdNJwNISMe6aDx4BQ/H2bKW7uXyj/5QPsjbyQu5MDnYHdMgxOwBqTwOMvrSAuPAxj+GKWLIAuq8c4lSEEozHM9Tfe4NlTREREvqa6TtRQdaj/r573L/bX9FD2YDyFfVkUV79B3tgS4laXuwLQuUZKTwxmhIGRsMudVDy7Acu/h2KeH80EaznZ+Q6y971L2fMrMHuOzpzZR1F3FhnzXP8aFiWReLyGhl7gdCOtsY+RmVRDQ4s7cHUnsWgmcHIr5rxuUn9SRa0lnLLlO2noG6a8n72enPkb+GDBGlIjA8sxwQlYnuwHKXsnlsyl4QA4eu2EflhJTu5mLLvr6Qos+ImIiMhXnLWtniNH+/8a6eh/PshaR8Xxe9mYG0uEMQxT9jpSj5dQ0e01AW+Ra7Dk3kvy0ukYx40l9GINB+qtEBpO1MTBYNNx6CAsT8HUXzAuluR5jZxqh9amFhb+XSzmeTE0NHXjaKyhYWkCc4CmX5QT8YMUpmDHFhbLQmMjrZ/4LwfgYiMF6U/wx4IjFCWFDCzDSIIbsPo6KUrfwIW8p8mY6C6LzqIwbx15q+9lxrmdmOfvpMOrm4iIiHz9zFn9HLt29P89Sdpkd8VlO1bAMMb9/xgD4IDPPDqPZNy9FP/yVeb8ehsLp5lZXu5OZ32NFO8OI/vBSI/GYcQlhPPOkYM0HA0nfiYYo2dz6WQLx5oaSVwQC8AluwNHVxunTjRz6oSVGblPkxjmvxyAc800nDEyIyrwcEVwA5ad2pwHKI4po2Lt4Is2RMaSPC8S47RYUp/dRGp3DbUfDekoIiIif04mxRBnaOHUaff/p5tpYjpRd7j/t9tx3dBy4Bjuztb46WRYymjdn8KpN90fkjtRQ2l0Ckv6B3LcIhYsZmzlTop7Y123E2fGsKhuJ/nvxJK2yDX6NWNuLB/3hhK3dDHJSxeTvDSWqHH+ywGIXkfV4RQqFiRT1P8cfQCCFLDs1OYs5EchL1L7bOyQp/SHrLjuTrqIZEJ/KhQREZE/Q7PJ2xNLWcoMTDFmpqSUE7/vGRLHAFHRmN7bgCnGjHnRBsq6vPu6dZeQNstM4n0ZmJdXsmR9CkYcHCguIXF1+rUfmJuWRKqjmwvzY4kCIJa4Bd10RS0mzh2WjOlPk9+9AdMsM6YYM6aYbTQMUz4gMouKtxOoWJRK0ZnhEuGgm5wB/uR29sZ8igoLvItd6jYz4cHyoWXTnuRU3WJqUxKxfBRC6M1g64HEl96lOEUJS0RE5EYZ9podoGBMgz4HtosOxo4PGbxdiPsLPHsNI3/wrc+B7aIdQsMINQDWctJm1bO841VS+0eYroPD3oPtioFQYwieS+Cv/HoEZwRrwXNcOPfR0L+6LCIIJ7PyA7qOH+FI9RE6fntK4UpEROSbYow7rHiGK9zfLjBSuKK/vztcAY5uB3cWrPtc4QrAEBKG0UeI8ld+PYITsEYyLsS1wN4rWERERCRAhpgV7Frp+j6rr7ovJmCJiIiIfIMoYImIiIgEmQKWiIiISJApYImIiIgEWcAB66abbsLxpz95F4uIiMhXiONPf+Kmm27yLpYvWMDfg3XgF9XU/tsxAmwuIiIiX4KbbrqJxL+PJ/UfkryrRmVtzv+kcLsFw7e+5V0lAQg4YImIiMg3hwZWPh8FLBEREZEgC/gZLBEREREJjAKWiIiISJApYImIiIgEmQKWiIiISJApYImIiIgEmQKWiIiISJApYImIiIgEmQKWiIiISJApYImIiIgEmQKWiIiISJApYImIiIgEmQKWiIiISJApYImIiIgEmQKWiIiISJApYImIiIgEmQKWiIiISJApYImIiIgEmQKWiIiISJApYHnrtWPr9S4cynHRjqPPu1RERETEJeCAZa17hZzcze6/bRSftHs3cXNQlWMm+eVO7wq3keq/XF37Ulmyr9u72EM3xctSKf7Eu1xERETEJeCAdeVMJafGp5OXu4nHHwynYUUcOXUO72aAgbg1z/OjZZHeFW4j1YuIiIh8vQUcsAAIDcNoDCNi5gryHzWyv64d6KG2cC8NH7VQbNlMWTt0NdfQ8OseVx9HN1U7NpO9dgM5O+qx4lnv6lvbXk9Rbgbx8zOwVLv7AdbqbaTNTyQtt4Sq8p2UtQ8uikt//xoK1mYQn7SBA2d6aC3fyfKkRNIsNVj7b+U5uqnasYrEmGSW7yinw2MAzlrtbp9bQoN1sJw+O03FmweWocnfoJ2IiIiIh9EFrAF2Wps7ufP2MOAKHYe2kf1MHbfFJGAaDxdOlFNx5gpg58DD8RTaFpNj2ULeUteo1WD9FToO7aToF5CY+yKlT4VTsXontQAntxK30Upm6VsUrY/k1L+8wrFz3svh7l8XwnLLi+y+u53spCc4NS2dwn1PY6p+hO1HAXooezCewr4siqvfIG9sCXGry7EOzKeT5ELXfKztg7cHmyxxbDx3L0XVVVgiyskoaPSYt4iIiIhvowpYZ3ekYooxY5o8g3/qe47iNeHumkjWPrWJ1KWLMU306NBbT8V797LRkkCUMQzjtHCMHtUu4SQ+4KqPWLSYOK4A0PSLciY8uo7k8DCM4bHERXv36xdO4tJYIoxhmKKnw+RYEmeGYzTGEjcX/vgZYK2j4vi9bMx1t8teR+rxEiq6ofVINRMe3UTGNNd8UhP6X1MLFaXhpP0gCnrtTIhNYMKJdrq85i4iIiLibVQBa0ruAVqbT9H64Ue0vplO1BjvFl56rHQBhpHa+XDpsgNuNngXX5/LdqyeyzHGADjgM7hwvsfPfGxccjjoamvm1IlmTp2LJs+SwATvZiIiIiJeRhWwRm1SDHGGFk6d9q4YWfz8xZzdf5AOh+v5qY7PM3TkvRynm2liOlF3wIy5sZw92YLNXeUYeG4/mvh53fwxJJbkpYtdf/Mj6Y9i+poGERER8efGBixmk/fmYt5Nmeq6tThrq+v5qgAYUp6nYn41qTNnYEopoev/8m4xGrPJ2xNLWcoMTDFmpqSUE7/vGRLHgDH9aSyfbmDKNDOmuclYBj4ZGUZGwSa61ppdyx5jxmRpBIxEzbJSsGQVxcN9m4OIiIh8Y93kdDqd3oXB58BmdTDWGDIwAjQ6PRQvNdO28SN2LfCuG4U+B7aLDsaOD7nmtqXDbocQX8vnwGa14xgbgjHk2loRERERb19QwLoO3QfJL2gkZO50OLyXFz5dQcOhrJGf+xIRERH5kn11AxbgON/OsaZuiIghfnrYNaNOIiIiIl9FX+mAJSIiIvJ1dIMfchcRERH55lHAEhEREQkyBSwRERGRIFPAEhEREQkyBSwRERGRIAv4U4QHflFN7b8dI8DmIiIiIt9YAQestTn/k8LtFgzf+pZ3lYiIiIh4CPgWodPpVLgSERERCUDAAUtEREREAqOAJSIiIhJkClgiIiIiQaaAJSIiIhJkClgjcmCz2nF4F4uIiIj4EcSA5aCrbi/ZSWZMMYmk5ZbQdNG7jW+tpZvJyXX/WfZS1W73bvIlaiRv1lMc8y4WERER8SNoAatjdyrmpzpZUvguR6pfxxLdSEbsBmoDyEoXTpRzae4m8nIfY1WMjeK0GSQXd3s3ExEREflaCE7A6j1IwbMGCvY/R/K0MIzGcEwrX6X4BzVkPt8CQGvpNg6cbKdsxyoSY5LJLm7B5jEJQ6i739JNVJQ/hvWZvTT0ueocH9VQ8FAypqRVFFT3uArby7Hsb6GpeBvLkxJJ29GI9aN6inIziE/aQHGzO9mdb6TIsoG0+WYSH9pJ1Xn3DN39W8t3sjzJTOL6Epr6w6C9heLcDOKTVlFwqFO3B0VERGRUghOw2pupNcZinji0OG7BYhzNzXQBF07speDNNkz3P09ZaQpdW56izN8g1cwY5jgaaf0EOF9OxuJy7txygKZ96XRtfJji88C5Rop27ONC7BoK96zDuDuDtH+BxNwXKX3QTv6WcroAMBK3egtF+9+leFE7mevLsTLYv3VaOoX73iKtayt5P+sGeihbnUrZ+Mco3fc8y2ij1Xv5RERERIYRnIBls+EYH0qodzngOfwzZ2k6pvAwjNMWs2SaAz7zbOibte4gDXenkxhix0YMi/6uhVNt7sq5Ka4Rs/DZzJgM0QsSiDKGETEvlin9850YiWm8AYCx0TFM+dTOlf6Jz00hY2Y4RmMkyXdH4ugDehupOn4vG3NjiTCGEbU0hTn97UVEREQCEJyANS0a05k2Wt239Pp1dbTDtHAihhaPrNeOHSOht8IVmxUudnLqRDOnTjRjWPIqa6O9O/hnO7wB090beK26mtd2V/OxdwNvPVa6AMMY7woRERGRwAQnYIWnkDnvIIVFHs8rXayh4CUry5clDG07kj47VflPcWxZFmlGiJgTi+EcTElaTPJS15/J61bkcE4dOog571XyV64gf2MSd3o38DYphjhDC6dOu/93OPQMloiIiIxKcAIWYWS8VkbczxOJmGbGFGMmYtZT2J86wK4FrttzIzmwzowpZgYTvhtHoeF5mnYlYAD4/iaKZ+1jYbRruqaYVYzmA4bmpffS8GgciUmJxOdVc8m7wTVmk7cnlrKlUzHFxGNevcf9LJeIiIhIYG5yOp1O70JfsjfmU1RY4F18DYe9B9sVA6HjQ4J7m63XjrWX65turx0bIYSO864YRp8Dm8Mwuj4iIiIiwRvBGmQICcNovI4QNJJxIdc/3XGjDFcAYxSuRERE5PoEPWCJiIiIfNMpYImIiIgEmQKWiIiISJApYImIiIgEmQKWiIiISJApYImIiIgEWcAB66abbsLxpz95F4uIiIiIl4C/aPTAL6qp/bdjBNhcRERE5Bsr4IAlIiIiIoEJ+BahiIiIiARGAUtEREQkyBSwRERERIJMAUtEREQkyBSwRERERIJMAUtEREQkyBSwRERERIJMAUtEREQkyBSwRERERIJMAUtEREQkyBSwRERERIJMAUtEREQkyBSwRERERIJMAUtEREQkyBSwRERERIJMAUtEREQkyBSwRERERIJMAUtEREQkyBSwRERERIJMAUtEREQkyBSwRERERIJMAUtEREQkyBSwRERERIJMAUtEREQkyBSwRERERIJMAUtEREQkyBSwRERERIJMAUtEREQkyBSwRERERIJMAUtEREQkyBSwRERERILsJuunnzq9C0VERETk+t3kdDoVsERERESCSLcIRURERIJMAUtEREQkyBSwRERERIJMAUtEREQkyBSwRERERIJMAUtEREQkyBSwRERERIJMAUtEREQkyBSwRERERIJMAUtEREQkyBSwRERERIJMAUtEREQkyBSwRERERIJMAUtEREQkyBSwRERERILsSw9YVy/buPT7q97FX6qrv7dx6fJ1LtPVy1yy2bj6mXfFSK7Sa7vMdc5VREREvkK+sIB16VdV7HxqE1nrN7HxmSJqPrwMQMvrm8jaVsXvvDt8ac5zaNsmsl5v8a4IzOmfkvXodg5d8K7wcvUylzwClbXqGR56dAO7/49XOxEREfna+WIC1gf7ePzHlbQRwezou5gy4TIfdNi8W32ztPyUrEd/Sn+MMyZksGJZBv8w1audiIiIfO3cbLFYLN6FvrT/+gN273mDfzvW6PMvLOzbGMO+490NgN81lHPoV7ewcN1TrPkfZswxsfztXX/pqjt1iMZLE/irvv/N63vLeeeXl/nu30zj27cAl89w6PUiXt13iLq2/yRkiok7vnWGQ6/9nLr/Go/5u+O51FTG6++cJ3TWXXz79y28VVJJx5gpfO//HjtkGS79qorSN96kqKaF3pApmMafp6bsdfa8doB/rW7gLBOZGfUdvsUf+HVtPW2hs/nH79/hu+/VBor+9T0+/Y6ZyNtstPzr61S230zU9ImMPXeCn//HHzAtSuR7f3mZD98r49U33qSk8j0aOq9yp2kK3/79CV574widtsvY//M3nP+LKZicv6Lu/Q4+m2gm8jY/r30c8PF7FP3rb7j5v52h8tXX2VN1mr6IWXzvO7eArZVDe3/CztIqGtouMzFmGsYxQ1aDiIiIfAECHsHq6fmU9l9/4PdvOH/1NyaM2Kj58Vo2vlzJiXNeTxpdaOXE7yNY+Ne38snpKn5afx74T2r++Z8p+T9XiU5K4K/+v3p2bi2i5bMIxtlaqHuvhd9xmZb6euqOVnLsA+BMAweO/gbHbaFDp/+rn/L4jys5Zp9IUuxdXL5kA9t5rNzF4gdS+IeplzlRuo//dW5oN799e85Qd7SFD3oALvNRSwt1LV30evfFxu96YOqCFFYmRdB7opKi987D7238l3fTIdP089qv9Lf7Oa/9wsYdcXfx3y+c4a2S97BymYbXXqLkdxE88EAKi6PgTw7vmYiIiMgXIeCA9ffzY5n+vanccsst3lXcl7qU6d8b5t7WnRm88M8rWRx5KxdOVLHzibU8Udk1WD8xjh/+YzIL7p7NHcDVq8CFBuo+gDsW/pDVScls+EcT/L6FY7++ldkzI+BcFx9cbqW1LYIpU6/S9qsuPvxtF4TN5m/v9Jw5tBw9QS8msi3ZpCalsDrxLpgQx4p/TGDyX4YSnTibO/hPun0ELJ99AzaRuPsz+B/fDeW2v76bubfDJ7/rgjvv5gFzKBDB4jXZPPA3XoHQ72vvb/AdFq7IYGlCMn87EfgMrnIrt4XeAufP0HLhFqYuTmG212RFRETkixFwwAJ4dM0qrl4dOvoU9p1v84+p/zCkzJdbJsSx+qmdlP0kmwVh8OG779Hm3cjTZ7geAB/jDnR/eSvj3OW3zZ3LFM7Q+s5vaJswjQfmRvDJrxv4j04bxv9nLpOHTmnwE303exT+ah9ZD29i5zsN1FSfuXZEyc1n30B91spr69fy0EtVHPtfVbRd8m7gxzCvfTjRDz1N/g8i+N07P+Xxh7dyyEdgFBERkRtvVAErLOzbPLpm1ZCyRx8e+r8vV8+10vaxjUs2G5euXOZPV4Dx3+G/ezf0NOEuptwKn3S0cunKVdqaztDLdwi/HQidS/xUaKiq5+pfTyM62sQdH9RzoDOUueZrR5imfjcC+A3/8b/Pc8lmw3rxMr87e4ZLn5lYkZvND+++i2vG5X7/n1gvX/XZt9+lSzauXvlP/muwyO0q/9Vj4+r539Bmg7n/mEf2qruZOvSxMNctxI99fCXEcK/dr8tcungLpqXrKXwlg9mfnefY/znv3UhERES+AKMKWHjcKiSQW4Nut/Q08OMnN5H16Cay/t99NPzFXax+LIW/8m7o6WYTK9bMxvirn5P1w7X86L3LTH4gm9TbAUL52zkR8BlEf88Et99F9K1A6GzivYevgNvuXsnqaGj4yVayHt3E4/vP8FdTpnHbza3sXJnFyr2tHt8/Fcqk794KbZU8WtLqsy/RccT9JbS9sYmMxyr5JMwjnt1+F5NvsVGz45+pufkuokPhxMtZ3LdmHy0eOeqv5sxl8i1dvPXkJrJKWgcrGOm1+2PjP17NJ2NlFvf9sIyW0NmkJUz0biQiIiJfgJucTqfTu3AkPT2fUn/seEC3Bgd8dpXeP1zm6l/cym1/ec14kX/uftwayrhRdPPp6mV6P7uVcf0jSVcvc+nqLdx2awAT9u772VV6/3CVb4Xeeu3o1xBX6bUF0s6H63jtVy/b6L16C+OuZ34iIiISFNcVsERERETEv1HfIhQRERGR4SlgiYiIiASZApaIiIhIkClgiYiIiASZApaIiIhIkClgiYiIiASZApaIiIhIkClgiYiIiASZApaIiIhIkClgiYiIiASZApaIiIhIkClgiYiIiASZApaIiIhIkClgiYiIiASZApaIiIhIkClgiYiIiASZApaIiIhIkClgiYiIiATZNzhgObBZ7Tj6vMuBXjtWu8O7VPr1ObBdvIHrx3ED1n+fe3t7l39ODnsPtl7v0hvHcdHPPisDfK6jr+gx7bD3YPvqLdbXhtaffJWNLmA5emgo3kZOYT1W7zqAM6+QHLOZquu54NyIi+pwjm/D/Gg1tjHeFQDN/NP3H+GA3bs8cI7OGgpyN1PW7l3j0lq6mZxcjz/PdXq+Bst9iZhikskubsEWSJ9+1npeyC2n1bvMo63tZAnZSWZMMYmk5ZbT6t5eQ6Zv2UtVu58V8EkJS5aV0OVdHixHn8K0pdG79HOxljyA+aVODAAXWyjOzSA+xkzi+hKaPF5m676h69jf9nPpZNeiVHZ3e5cPf6xYq3eyPMmMaX4GOZWDnW11rwyUWw51+wiD3RQvS6X4E+/yL4ajejOmpa/Q4V3xleJvHV3/MW2te2XocZe7mZxS144x7DHp5zj2dGyLmbyj3qVfkM9zvv6yeF0ngr7+hjluAejr5IDF+7zgwHq8BEvuK9T67BTYecV2/JVr5uvvXDHyPHuoLfSeTw+1hR7tL7ZQvD4ZU4yZ+Ps2U3batV6H7u87KT7u61wkAXEGqmmHM3rqHGfqkjinMWGP82PveqfT6bxqdZ460uG85F0eiPfWO43r6rxLbxCrs3TZnc5H3vMuH/T+j+c45zzf4V0cAKuzItPkjEr8gXPhJP/zuGKzOi9csDovXOhwvrZ8inPhT9zz+kOd85FJC53/1NDlvHChzVm4+E5n6pvW4ft4+nCPM27ieudh77L+bfbrHc45E+9xFv7SNa2Pf3nc+f4FV7PD6+50rvq51XnhQpfz/V/scKZOvdN5z2tdnlNy8ZzejRD0faHZmTdpoXP3h67/Du9a73ytoct54UKX8511Jqcxs9J5xel0Op1dzt0JC50/bupfz1bnJVeFbyeecob7Wg/DHCuX3lvvjF68w3msyzX9sx+6tq3zwz3OuKnrne986nQ6/9DmLEyY4sxr8OjodA4sX//r+MLZOpyHm9zL+5Xlfx1d9zH9B9vA/nDhgtX5/q57nOFPNjudwx2TwxzHng6v83+OuOE+z/n6y+J1bgjq+hvmuO139if3OI0TPefZ7PzxbJMzetkPnHMm+t7vAjqv2Oqcj0y9c8h8/Z4rAp6n97rxPDY6nD/+/p3OhS+1uZapq8157Jeu6X/8k4XOuB83u+bZsM+5MfZOZ/SmOvc5UkYj8BGs6HU0tZ2iYv1s75pBF9toqG52jWy0l2PZ30JruSuBe44U2JpLyLkvkfj7NlBwuAdH50Hyn6+BE3vJcSdy6/G9WNZmEB+TzPIdNVjdQ/6tpds4cLKdsh2rSPR6Z+j4qIaC3A1kr91MweGewbKHkjElraKg2lVGbyNVxxNYFOt7eQBMC5O4UF3vNUrTQ1XBZopPu/5znNxL/r52r3QfRvJLpzh7+EXSJg+pGMIQEobRGIKt/Alen/Q6FWsjAXAcLuHA360jf144RuN0Hv/RCk69VknXMH1GpbubrsgkkmeGYTSGETEzFpNxsNoQGobRGI5p6SYqyh/D+sxeGrxvtwDg4GzdXvd620bVeXdxn52m4s2kzU8kLXcvDf3lXqNo1rpXeKHOta5bS7dx4Ew3VTs2D5QB4GinOH8ntf3ToIfaHduo8nwjd76GgtwSWvsAHDTt2Uqx+53YgNN1vBO6mLhJrn8TN75I5rxwjMZwkpMS4JyVCx7Nb/u2a90YjWGEGjwqvDS8XY7pwRQivCv8HivdlBU0krF9E3HhrulHTQpzVf22k7N/u4DE8cC46cQtMHD2I4914cHx23qKcjOIn5+BpX+fdo9MurbHZoqO9pd7vWv13A7t5VgqO+k6tNP1zrmvhyr3cbXcMjiyOaC7mXePtmEd4Tgc0NvJgR2bWZ7keodc3Ow9fGSn4WWPd9mnSzzewfdQW7iVA2e89ymPEUdH9+DyepwjPHXs30b+7kZs/o7pQPafcSED+4NxfDdl/2In+0HXtvV3TA53HF/D6ns9Djl3lXcOGckeHJlop6x/xNpazwt7Guk6WYLFXdY/ApL40LaBEYoBAZ6vBznoqNxJzkPJrhEVX9ucHmoL91LbXkPB2gzikzZw4EyPe7qJpFk8ttOQ7VdOR//8/CyLr+sE+F9/Axx2rNaeoX++7pb4PW7dOl8h+1AK+SmehdPJOfo+rT9fxxzPYh/8n1fsVOVthfVZTBkoG+ZcMYp5+tdNV3ckS5Kmu5YpfDpxM/unD4S65zlvBbuqX2RG6cuUDpyHJVCBByyDAYPP22keLndSUdroulida6Roxz5ap6VTuO8t0rq2kvezbqCF7cvqid71FhU/2cKyKDBMTCBtQTjMSicvdwXx44Fvx5JpeZGK6ldJbn+E7HLXBePCib0UvNmG6f7nKStNoWvLU5R1A/aDZM5/GXvSOn5k2cSyKOB8ORmLy7lzywGa9qXTtfFhis8D7c0ci4zBNA6fywPAxHCmnGnjrMfLgzCS7wmjKH0rTY4WLGsqiZg33XXbyYNhnHeJbx27U4n7WRR5D0Yz1l124Vw3xqmRg9M0hnOnx3L46jMqsSkst+4kNWUbZad7hh/6nRnDHEcjrdfcbgE+bOQUCeT95HX+aVIlmTvqAWiyxJFxfDbb979F4fw2MhO20tTn3jcOdXLF3f3KmUoqzrj+u3BiL4+v28uFaQnMiQgZnIdhOlPYS2F/iDhfTeFuB6ETB5swcTFLxu8lzdKC4+Q2Vr0dTvz0oevf2taCNTYa05BSADsHyg8SNxCS7Fy6CA0/dQ2Nl/m7RQrQe5DifbGsTvc4KfXze6x08v6ZWKaOq6fIspmcHeW0XnRXzc/C8ulTJOaW03q6nN3vJZG91Me06ebYCUjMfZHSp8KpWL2TWoCTWzGvaGTOM29RsSuB99csJP8kwBU6DlXScdnd3XM7nGukaOMGii5GszAmnD+VbyCvN4uy6jcoXB3DBM/ZutuXuvv6PQ69RC3dROG+d6l4PISiZTtpGlIbQugf6ij4hSstNP18J6U7Smjodb0Jen2HjZBI1z618dy9FFVXYYkoJ6OgEeih7MFkym5/kqqjb5DR/QSrSoYG0o49qSx8LZTM1bGE4ueYDmD/8eR4Zw/Ff7uJtdMGy3wdkyMdx56aTvhYj+fLyZj/MmS9ypF9m/hvbySSWdp/Dizn2Ln+3laO9Z9zL3dS8ewGLP8einl+NBOs5WTnO8je9y5lz6/A7PFGiv72I56vvUSlkPf8GxzZ/xgh//IA2096N7hCx6GdFNWFsNzyIrvvbic76QlOTUuncN/TmKofYftR3NsvnsK+LIqr3yBvbAlxq8td4drPsvi8Tvhbf546q9m+Y+fQv0OdXo2GO26Bvhbyl1WT9nIW0UPaGDCM8/zfl+HPK9bSR8gb8zTb7/HcQMOcKwKa50hiSbvfSsGyVCzl7ViHuxCEzCZuWgun2rwrZCSBB6zrMTeFjJnhGI2RJN8d6X7wNIQQYzNVP2vDNs6dyseFYAwFDCEYjSEYxoBx2nQmjAEYi2lmJFZb/6UZ5ixNxxQehnHaYpZMc8Bn4KirpHbJOgoWRA6kfWvdQRruTicxxI6NGBb9nXsnsdlwjDG4T34+lgcgPJIoOunwPlhnbqJ4ZT3JUQ9wau2rZF/HIJJLD7bb11C8MZJ31szAtL5+4J3XbaEeIWMI/30CNi6BXadPUfYAVGSaiZi1ijIf55oRTU5g+YJIjMZwEu+OhT6AFipKjazNTyfKGEbE0nWsNZZQFsAzEslPPE3m0sXERQ69uMUtSaf17WqsgLW6EuvaFcR5nQRNua+y6nAqEenNrC3KIsqr/orNCmOuvWh27H6A7AtPsn0gJBlZ8syT5D38GKuSQqlNm0Fmpe8zj+NwNVVJKSSP5kR3vpsu6il9247p/izu4SBpse4ACjAuHPNkO7s3beNURCS3eXV3CSfxgQTX+l20mDh3ZG36RTkTHt1ExrQwjOGLyXnUSPHPXKF3WEs3UbByMcnzIwkbF4L18EFqz0NoeCTGEV6br+NwiHGRmCa71/v3opnjsHHJq4npnnQ43EgX7Rw+nMTj6zo53Ag01lG7LIXEMS1UlIaT9oMo6LUzITaBCSfa6bLWUXEigYxFodh6wTw/lqZfDl4BOt56hNS3F3Ck8jGi+je9n2N6pP1nUDfFL9WTmXWvK7DBsMek/+N4KF/r0Vp3kIYlHiNg6++l4U0/I2CeItdgyb2X5KXTMY4bS+jFGg7UWyE0nKiJ1x4DQ/g8X3syEDU93H3ejGZGjINLPk9A4SQujSXCGIYpejpMjiVxZjhGYyxxc+GPnwHWOiqO38vGXHe77HWkHi+hon/b+FoWH9cJ/Ky/ISKTyMvdNPRv6WhO3A5qn3j4c5zvhzmvfLSXjB3hFBYkeOxTAZwrPjcDibtO0bovHfY/hGmymeWl13MhkOHc2IDlUyT5R6vIHldJdvRU4p9t8TGKYqd2vZm49ft4p3ofhe96p5xrXTjXfc1F9IrNChc7OXWimVMnmjEseZW10cDNnmM/fpbHasVKJBGeoyVuEbNmE9oXQtTkIYfEKIUxJ+VekpdlUVT9Iub9JRzpBcYYOHvGY0fvc4Ah1H2x9dPH081cM6KGzevCZgjDlP4kFc0fUJXSxsbdfi7EvXbsGAm91bvCHxuXHHi8C3S9I/yj9wlvNOatINtaQsVHPbzztp3M+3yc4caEMyMmBEIjiXK/qx1af80awXZ4A6mlMVSUe15QwzAtTcAUHo5pQRaW9ZFU1fl62L6H0tfqycy899p1PZyJ4UQQw/K19xI3LZLE3KdZa6zkndPQUbiKsnkvsmttFkWH3+fA3HKSLX62iw+X7A64eXBpDDfjDr2BM6S8ytk9szn77D1EzVpF2UfeLUapcy+Jcx9i+/5qKl4q9xq9cpuZRMbFehra22j6Xiw5CxNo+vcWmv69ntSlCe59ykFXm+sYPnUumjxLAhMu27Fip8N9bJ8ypFC8Oto9URvvNzZD1HSMnhvI3zE90v7T7/heCnqzyJznWejnmBz2OB7ZNW8KxoCPE+Xwxt1L8S9fZc6vt7Fwmpnl5SOfR4fV10lRUhwZOyp5Z//LlDZ7NxiFy3aseJwrxhhcL/DznCv8CXQEy5/mnazdH0pEh+vh76IT0PSa9wPkw/F3XumhLG8bFybBu5bN5BRU8vGHlVgK67EOc64I2DUnJ9dI2iADxpnpWH5+iq7KFN7P3esaDb+GnUsXDdz2eS5331BfQsACDOEkrn2R2tNPE7GnnFPe9TRTsT8Gy2ubyFy5ifx7wr0bXCNiTiyGE83uZyk8ys7BlKTFJC91/ZkmAlGRmDyH630tz/luzhrDifB+N2s/yNqNUHhoDR3rnqJqmLtI3hwftQ8O83pe/Do7OIuRkHEQMT+BiEM11LpPph3VlXx8/2LXvXY/fYYIjyEupIaK6sEFa333INbJRtctnyEXXQOMAcOtPo6cPjtV+U9xbFkWad63FvyKJn5eJw2/dM/b3kLDmUhm9N92vWgbfL5kpItFX3+DSFY/HELZrmd5nRWkuZ+j8mSr3MBGnqdqbSdr82quGdWLiIyGts6Bd/+2w5uJeyaUouqnifMcZHA4PK5hDs5+2E1EuI9973w1FW3pJM/1rhhJNPHz6qk43L9+2jnVGc2UcLDZrFyyDW4zo9HHfIcxY24sZ0/2P39ip+lkJ1Om9YdR2+BIw5XhV3zodNcJ98CyZko9n4e7Dl3vlWNb+Ty71q4gO3+Fj1u0ANNZkt5B6ZPlsCgWw+wE5jS/TOHhBNIScK+zbv4YEjtwDCfPj8QwKYa4m7vhe4PHdvLAMyShpL18hEI2YPYc5fVzTI+0/7jYObC3BPP6lfTvzuD/mBz2OA6A9/mstakFoiMHnvez97onPGSf9WH8dDIsZbTuT+HUm34+GReoT+opu7iSF3Zkkbl2E5mzvBuMwqQY4gwtnOoPDKebaWI6UXd4tQuG6ens2vHc0L/l071b+Xd7CoU/2UTa/AQWzk/ANBGM0QmYhgvjgK29nS6H9zbyPK+EYF77KttXu6a7cG4koaGRxMWEEzrMuSIw4ZjnhlD1tsf+fLqaA9ZIJvQfJh77ruFmwGDw8QbAQcfLT/DC+E1kf9+7TkbyJQSsevJnmYm/L4PE72/j0pYs4oCIOQkYKx/BFGPGcjSGtGWNZMYmkzg/kcff833KG+L7myhLqiE5yowpxoxpSz18fxPFs/axMNpdFrOK4m4gPIGF4Y3ug9v38libG7EtWTD0otBnp2z9Btj+DMkxWRSt72Sj3xOyt26Ks5PZuL/b/VHyqUTMci1XREoNyT9/kkSAaZsoy+8gc5oZ06ypxL0WQ3F+7PB9hpjNxtdW0PbwDKbEmDFNm0Ti/lhKC92jLY1biZg8w7U+pk0i+e0FFD8x+FDngXVmTDEzmPDdOAoNz9O0K+HaN0J+hZFR8CSXNrrX98wnuGR5lexJQFgk5iuvkDzLjGluKgUnhrksREVjemcDJotr9MiYvpKo/QeJWp3ONVnvYjlr18P27YuZk/kiGz98gjyPcAnA3FiSzzTS1AtQz49WlmPtLCFt2iQm3D6JCbcnUvQRcGIbUQPrZirLz2RR9PC1I2Ydb+71eatyZO71s969bWY+wSXL02QYYc4Tr7Jof6p7+87AVACFaxO8J+CXMf1pLJ8+gWmWGdMsM49/+iTFa8IBI1GzHLyQYsYUE09yYePAc3DeuoozMMUkk3ZfPBlvJ7Fxma9nwAIXcXc6oYXJJCYlY1q5x+/XO5juSafrpJ3EeWEwJpZFE+qpnZtC4hjc62wTXWv7j2Gze7+YTd6eGF5b5N5eMWaW7/McoQkhcdcRtvc+QVxODbY+P8d0IPsPwOk9FPz7CjYOeeZumGPS73EcoO9vonheOcnRrv0huTyW0mdd+8OU6OnUrndtz8T15f5vG3aXkDbLTOJ9GZiXV7Jkfcq1x89o3JFAxvidLFyUTGLMKnb726ABmU3enljKUlzbb0pKOfH7nnFvc/+GXie8a2+QidMHQ/zSxcRFQMRc95t1v+r50aJkXjg+3HnFQNR8jzcIC6K5bXw0ifMjMQxzrgjUnJxXyWx7hCnT3Of0peXE73ue1HEAjeRHTXVNO2YGE35QyaI9mwbeAJzdkerapyNmkPHLFKoqs679MI+M6Can0+n0LrzxXF/6yLgwQr1HYDw4LtohZPBee0AcdqwOA8YQj1jQa8faC6HjB6dlLc0gru0xzhbE+lieTgrmroJ9x8j3eJj1c3M4cBj6n/1yf0neFQOhxpBrQ0yv+3WMH1ozbJ8h3F+sOSbkmmm4vijUT11QuNdnqNenZdxfUDp2xGX30nuQzO/VkfHbF0c8AfvTtGUG//TdI1RljhQa3OttbMjQfWhAC/mTNxBS/Xn2DT/rB3Bc7MHG9W8Xh93d32vZHRd7uDLu2vldo/9YGe028sfX8Xhd/GwX97480rnkhh3TIx2Tfo7jgPnp77D3cOXmkV6zx/rxsa9dHwc263Ucw/70nxM8zs1/NhwOMPSvJT/774j8nysCNbB/+ljHjos92Pp818nn9yUFrK+Avk4OPNtIRP4K5nhf5E6XYDkRjWXN7OCcROQ6Oeg6XkPpy09xYOZbnMofxbC+N3sjL7xkJ3XL4s/3Tqy7BsvPDKzNTfh8owHyhdIxLSJftG9uwJKvBevpGk79YTqJ8/o/vSQiIvLVp4AlIiIiEmRfwkPuIiIiIn/eFLBEREREgkwBS0RERCTIFLBEREREguyLC1h9DmzWHmzeP+3iwWHvwXrRzxdQ9tqH9u11/0K6r19F9+awB9bum6rXjtVq9/HbYzfecNt8uLoBX+Kyi4iI+BNwwGot3UxO7uBfQXlngN9g7vZJCUtmmVky5NuWhzq2xYxpWYmPbyauJydqBlOW7XXVnS8nLWqG61urU9zte+1+LsbdFKXMwDRtq5/fWRqJOxj6mvTXhOPicMG2m6KlMzA9Wo3ti/iiOa/t5H+bD1834LN6Ns6aQeIe//uVJ4e1kWLLZnJyy2n1rgQ69m+7pm6kPtBDbeHQ4+OFgZ+ZaafMozwn19dvmLn7F3r8lIm1nhc8p3OxheL1ya5vg56fQU5pu+vnN9rLh0zbsrtm8OeYRETkSxNwwLpwopzS0kY+Buhp5oWNiZi3tHg3u0ESyHvtSSz5KUTg/qV5Isk/+hEX6lxf4d9RnOrnYhxOxrNPYynMwuxdFYi+evJmmcn7on6WIeg6KUoZJtge30vBGUhe/jl/RiNA/rfTdQq5l1XL4OyOvTSMMIrV9KyZiFkZ5O9x7csXvBuc3Ery+r1D6kbsA0A3R14qZ/8vfbzlsLZRUVrOMT+r3+UKHYfKKT3UOfgzNpc7qSgtp+LMFaAFS2wq+e8ZiFuwgEVzw7nQ3OxalnONlPZPv7ebiu2PkBidTNEofstWRESCL+CA5TKb7B3PseuNKoruBltjs+tC2ddD1Y5VJMaYib9vG1Xn3c0dnZStT8YUk0z2Txu55DEl28kSspPMmGKSWb6nZfDHMPusNBRvJm2+mfjVe2myA/Tw/plOOprbsJ6vp/CNZqCbd3Zsdr2TP11OwZud8GElFh8jBF1n2uloci+rtZ4Xcl+h6mQNBQ+5li2n+tpRgsSH9tLU20Ot5WWqcP16umuEwUFr6TaWJ7l+fyxxfcnAMtYWbuaF6paBdZGYW4PVfdF3fFRDwdoM4j1HH+wtFOdmED9kOl4c3VTt2EDa/ETScstp7fVe35spbu7v6KDr0DbS5rtHOSp/Q2vpTko74eO3rx2ZAWiqLsdBAksWub7Gs7V0Mzn76mkq3uB6DevLaTheQs59iZjmP0LRwLzAWr3TtR7mZ5BT3P9Dw/7Xg9/t5HObe+qhqsBzhKeH2h2bySl27TfxCxLAUU5VC/BRCWkxieTXXTvkaJi7joq69yle5l0D9NaTs6KEiJlDf3tw2D4DbFxywJT7nhz4MdnHF7h/kueyHSsQv2bwh2YzRvuF9B81c8QOxge3UOSeRumuFUO+kX7O6ufYtbuM1rYXSaQdS8HB4X8EWEREbqhRBiwHdmsP1u4aDv87MNnIBKDJspDM1wykWZ4hbVwJmWtKsOKgNj+VjfvtLFq/DjPWwVuKvQfZmLKVtllb2G5ZQxy2wbrOGqo+nc7y+UbOVm8j72fdQ9/hX7ReM4pg+7Rn2NuV/aNvF+gfGdjJxmfquW1JCubedkpX76QWBwdyU8lvi+FHlmdY+3241GvF2n+nZ4CVrg8hbvUzbF8fi23/Vja+ObiMBRuf5ci4FNJmOWgtfYTtR123NDNiH+GF0wbuWb2YMKsVGz2UrU4lvy2SjZYtmNu2klrg+nHjQT2UPRhPZmELY5euINnYw4Ve9/ou7CRi9Truubma/KUPuH6s+MzLpD1cwtj7nmF77mLCes9zwXpNWvHQzalmBxinE+X+TbMLJ8opzd9K4acxZMwbS+v+zWRu7yY6fTFTumuwbHH/uOzJrcStfoWzEWvYuBTe2ZJK2p7h14Pf7eRzm3sKY8qYRkp37KXWCljrKCos5wNc3+5uiI5hCg4amrqho5mG852c7bn2dZsWrSBumq/fULNTm7+B0slPUrR+aPrx3+datrpX/Nw+N/B++WZycrdRdPSaHWpkkxK4Jxysu1OJWLSBorpO/8+chSwm7W6gupFj3nUiIvKFGWXAqiF7lhnT3A0ciN5EVeG9GKinrNiOcUEsEUBU5HRobuZ9Gnn3Z3ZIeZJdKxeT+cMU7uyfjCGMCQY4e7SarnHTycz0+F23aSsoyF1B6g9TmALXXkimp2P5QTgQTlr+c+xaPh3jgsfIngtMTsES4AjBwvXPkb0si4y7Aa4ABoxGA5yp551uA6aVWSQap5OR71ruOaufY9fGBIyEk5y3iYzoEELnriQ1Es6e8bgfc/c6dq29l+z7Xb98/8fPoOtQieuW5r7XyV+5gvyNCRi7Kyk+DnPmxWLAQNS0MBwn2ofeOnO3mZL/OqW5K8jMfYxEo2t9k/IkxWtXkP/sGqbQTsV73RBqxIiDU+81Y4tIImd5HIkbs5gD3PmDJ9m1Ix2T5/QBHMD4UEI9y9zbIHPpbAAWrn+SzGXpJE52twdqf1aCjXux/CSLzNynWRsJrW/XDC6/j/XgdzuNtM2BqAezmEMjVY0OHI01NLCY1enuUaIxHvFn0Yt0dXxARX9dAGyHn2Lt/nAsRVlEXddzaEbil6cTHz54+zxxh3ufuDWStOUpzAiBP3ZUYrnfTGblaMeWIsk/eoziNbGEfnAQy4OJRCzdS4eP9QQGQkJw79MiIvJlGWXAupfSc+9TdDfQYYVbXaV/BGwdjRw5Ws8RWxTL1yxgirt8yMWv35hYChrLsMR0U+C+WATtmZzPIe6ZBiq2zKZrxyriopJdo0Le+lqwzJnKlNV7OfDaHo54D7b40ue6oA75tfLPXFnF2lbPkaP1tI1bwPL7Y5jg0aS/DTcPXYdD1mtIGMb+UDJxBWV1z5ExtpKNSWZMOfU37jaR++Luek2hGCcMhq8bYmI6q++G2roaqg7VQ1ISye5RN2+GcT72Ob/q+dHKg9jGdLM7zYxp3UHgIGtjttHg3dSv6WS4b93teuNV8iOhq7retU8bE3jcXVe0/xlSgao675FKH7z3GUM4yZYyWn/7PhUrw+H0Top9PgLZzqmjwLRopnhXiYjIF2aUAQsghFTLk0yxl7CxqBOIxhwDjjHRrLI8x66Cp/mnhxOYQCQzpgHvVVJltWPrsg4+g9Vrx2qIIfulKjp2J8DpSqoCCSoj+bCT1hG+CsI/B7YeA+Y1L1Lrfo6l4r3Bherq6HR9HcAnzRyxQuqW19n17Brihgz9+BYxMxYDnVQcand9tcR5O447phNnAJsxgbxnn2PXs0/yeErk0FtR7jZnDx2k1dqD1dqDrde1vjnRSFOvA+vhGhqA6KhwsPdguz0Fy89PUbsuHNvPagZuE338YbuPrzMIJ2oWcKaNVp+jIf7NmDUbaKHhpAOHtY6q40B05JDngvwazXa6aKXrogMwkJyyGPZvILvaQGbmvYPr6rednAWiJ4cP+wyWb0bmLE9neXoSixYsYNEs1+ioaUHk0FE9b57z+aiRqtPdrm17uoZ3OgfXhfV0DQ1nXNuuq7qaI8CUaUOf84JwzLEGOFNC0eFurNZOygr2cJZwFs4PB0c3Dcc7XdO/aMPWawPCifD4VILD1oP1TCPFOY/wghXiVrs+ECIiIl+O6whYwKQsCjNDOFuwlbLzYWQWPsmcMztJjJrEhIipTFlTyQXCyd7zJHMuHyRz1gymbKlnbH//i5WsmjWVCbdPImJtPcb7N5ERPnQWo2Vemo7RUU7mLDNppdeT1qxUZM8gImISE6I2UGtMJ+/+cLgjgYwYaHo2EdOsbRy7I4aFRjiwehIToh6mIpA7MfM2UbYmktaCZNdXS6yp5MKYWPL2pGOofATT5ElMmDwD8462of3GxJL3ZhZT2neSOMuMadbDVFx0r2/rXpKjpmLKrcd4/+tsXwT88mXiprnWa+LL3cyxZJFIDGn3h+EofQTTrAco7v8Aglv8/MVADQ0+R0P8M654Hsv3rRSlTCVi1mZqjemUPuu6HTic0WynKbNmg3Uvactdnzo0LFlBpgEwpJM8d7Bd64k6IJb4GIZ9Bss3j9GnHc+xa/Vs94c5fNxO9eQ5n64aspPiXds2aSetkVlUuNfFlV/uIW2BGdMsM+aHD2JY8BzFa67d2ec88RaPx3RTvDIe06xENlY7mGN5nfxpgKGbAw8kuqY/K57M/QYSd7xK9qTB/lXrzZgWZJD/NiRvOUDx8sBvkYqISPDd5HQ6nd6F18eBzWrHMTYEY4jnOIwDmx1Ch5S5y322/3I57D3YrhgINQ73YLMDm9XB2GHb+NDnwHbZa130ObBdtMO4MEL93PICcFy0w3jP+bnW3zX9ApzegL5G8qMyKL2/jK6CWO/aETnsPdj6QjCOH9WauD597RTMS6YspYrWfPcDXP3Lv/R1Ol5KwAA4eh2jvE14fYbOZ5j9eRTbZGD/Gx8y9JYy7u8z6/NdJyIiXy1BDFjydWU7/go/qgwh49kVzLnxueS6dO1bRbKlHqsjlsLmMjImusodp0uwvGkn+anHiAvx7iUiIvLlUMCSr4eL7dQetzJhXgKm8d6VIiIiXy0KWCIiIiJB9v8DJYP7UBai4vgAAAAASUVORK5CYII=;" vertex="1" parent="1">
          <mxGeometry x="40" y="370" width="600" height="219" as="geometry" />
        </mxCell>
      </root>
    </mxGraphModel>
  </diagram>
</mxfile>
